<?xml version="1.0" encoding="utf-8"?>
<!-- Generator: Adobe Illustrator 23.0.6, SVG Export Plug-In . SVG Version: 6.00 Build 0)  -->
<svg version="1.1" id="Layer_1" xmlns="http://www.w3.org/2000/svg" xmlns:xlink="http://www.w3.org/1999/xlink" x="0px" y="0px"
	 viewBox="0 0 627 1202" style="enable-background:new 0 0 627 1202;" xml:space="preserve">
<style type="text/css">
	.st0{fill-rule:evenodd;clip-rule:evenodd;fill:#F6A62D;}
</style>
<path class="st0" d="M627,89.9c0-13.6-6.9-26.2-18.2-33.6l-65.1-42.2c-13.2-8.6-30.3-8.6-43.5,0L435,56.4
	c-11.4,7.4-18.2,20-18.2,33.6v793.4c0,1.7,0,3,0,4.8l0,0c0,57.1-46.2,103.4-103.3,103.4c-57,0-103.3-46.3-103.3-103.4
	c0-50.5,36.2-92.6,84-101.6c12-2.3,23.6-7.4,31.2-16.9l51.7-65.2c11.5-14.6,11.5-35.2,0-49.7l-51.7-65.2
	c-7.6-9.6-19.2-15.3-31.3-14.6C130,584.9,0,721.3,0,888.2C0,1061.5,140.4,1202,313.5,1202S627,1061.5,627,888.2h-0.6
	c0.4-1.5,0.6-3.1,0.6-4.8V89.9z"/>
</svg>
