<svg xmlns="http://www.w3.org/2000/svg" xmlns:xlink="http://www.w3.org/1999/xlink" viewBox="0 0 774.61 1264.11"><defs><style>.cls-1{fill:#f6a62d;fill-rule:evenodd;}</style></defs><title>Asset 1</title><g id="Layer_2" data-name="Layer 2"><g id="Layer_1-2" data-name="Layer 1"><path class="cls-1" d="M627,152a40,40,0,0,0-18.23-33.56L543.65,76.23a40,40,0,0,0-43.53,0L435,118.46A40,40,0,0,0,416.77,152V945.46c0,1.66,0,3,0,4.81h0A103.27,103.27,0,1,1,294.28,848.68c12-2.26,23.64-7.37,31.23-16.93l51.74-65.23a40,40,0,0,0,0-49.72l-51.74-65.23c-7.59-9.56-19.15-15.3-31.34-14.55C130,647,0,783.44,0,950.27c0,173.33,140.36,313.84,313.5,313.84S627,1123.6,627,950.27h-.61a19.57,19.57,0,0,0,.61-4.81Z"/><image width="512" height="829" transform="translate(271.61) scale(0.98)" xlink:href="../baggage.png"/></g></g></svg>