<svg width="167" height="49" viewBox="0 0 167 49" fill="none" xmlns="http://www.w3.org/2000/svg">
<path fill-rule="evenodd" clip-rule="evenodd" d="M167 44.0882C167 46.8019 164.85 49 162.191 49H4.81526C2.1574 49 0 46.8019 0 44.0882V4.91821C0 2.20582 2.1574 0 4.81526 0H162.19C164.85 0 166.999 2.20582 166.999 4.91821L167 44.0882Z" fill="black"/>
<path fill-rule="evenodd" clip-rule="evenodd" d="M36.6732 24.2308C36.6368 20.0975 39.9833 18.0866 40.1363 17.993C38.2411 15.1677 35.3035 14.7817 34.2712 14.7509C31.804 14.4854 29.4108 16.2604 28.154 16.2604C26.8721 16.2604 24.9367 14.7766 22.8508 14.8202C20.1666 14.8625 17.6555 16.4514 16.2783 18.9189C13.436 23.95 15.5558 31.3433 18.2789 35.41C19.6411 37.4016 21.2328 39.6254 23.3162 39.5472C25.3544 39.4612 26.1157 38.2185 28.5754 38.2185C31.0125 38.2185 31.7275 39.5472 33.8523 39.4971C36.0398 39.4612 37.417 37.4965 38.7315 35.4869C40.3056 33.2041 40.9378 30.956 40.9629 30.8406C40.9115 30.8226 36.7146 29.1849 36.6732 24.2308Z" fill="white"/>
<path fill-rule="evenodd" clip-rule="evenodd" d="M32.6595 12.0756C33.7558 10.6739 34.5058 8.76689 34.2976 6.83167C32.7109 6.90348 30.7266 7.95381 29.584 9.32476C28.573 10.5328 27.6699 12.5129 27.9032 14.3751C29.6856 14.511 31.5156 13.4555 32.6595 12.0756Z" fill="white"/>
<path fill-rule="evenodd" clip-rule="evenodd" d="M66.1706 39.261H63.322L61.7617 34.2479H56.3381L54.8517 39.261H52.0785L57.4519 22.1942H60.7708L66.1706 39.261ZM61.2914 32.145L59.8803 27.6884C59.731 27.2332 59.4513 26.161 59.0387 24.4733H58.9885C58.8242 25.1992 58.5595 26.2713 58.1958 27.6884L56.8098 32.145H61.2914Z" fill="white"/>
<path fill-rule="evenodd" clip-rule="evenodd" d="M79.9894 32.9566C79.9894 35.0495 79.4362 36.7039 78.3299 37.9184C77.339 38.9995 76.1086 39.5394 74.6398 39.5394C73.0543 39.5394 71.9154 38.9572 71.2218 37.7927H71.1716V44.2755H68.4975V31.0059C68.4975 29.6901 68.4636 28.3397 68.3984 26.9547H70.7502L70.8995 28.9053H70.9496C71.8414 27.4356 73.1948 26.702 75.011 26.702C76.4309 26.702 77.6162 27.2753 78.5645 28.4231C79.5152 29.5722 79.9894 31.0829 79.9894 32.9566ZM77.2649 33.0567C77.2649 31.8588 77.0015 30.8714 76.4722 30.0942C75.894 29.2837 75.1176 28.8784 74.1442 28.8784C73.4845 28.8784 72.8849 29.1041 72.3493 29.5491C71.8125 29.998 71.4613 30.5841 71.297 31.31C71.2142 31.6485 71.1728 31.9255 71.1728 32.1435V34.1955C71.1728 35.0906 71.4412 35.846 71.978 36.4629C72.5149 37.0797 73.2123 37.3875 74.0702 37.3875C75.0774 37.3875 75.8614 36.9899 76.422 36.1974C76.9839 35.4035 77.2649 34.3571 77.2649 33.0567Z" fill="white"/>
<path fill-rule="evenodd" clip-rule="evenodd" d="M93.833 32.9566C93.833 35.0495 93.2799 36.7039 92.1723 37.9184C91.1827 38.9995 89.9522 39.5394 88.4834 39.5394C86.898 39.5394 85.7591 38.9572 85.0667 37.7927H85.0165V44.2755H82.3424V31.0059C82.3424 29.6901 82.3085 28.3397 82.2433 26.9547H84.5951L84.7444 28.9053H84.7945C85.6851 27.4356 87.0385 26.702 88.856 26.702C90.2746 26.702 91.4599 27.2753 92.4106 28.4231C93.3576 29.5722 93.833 31.0829 93.833 32.9566ZM91.1087 33.0567C91.1087 31.8588 90.8441 30.8714 90.3148 30.0942C89.7365 29.2837 88.9626 28.8784 87.988 28.8784C87.327 28.8784 86.7287 29.1041 86.1919 29.5491C85.655 29.998 85.3051 30.5841 85.1408 31.31C85.0593 31.6485 85.0166 31.9255 85.0166 32.1435V34.1955C85.0166 35.0906 85.285 35.846 85.8194 36.4629C86.3562 37.0784 87.0536 37.3875 87.914 37.3875C88.9212 37.3875 89.7052 36.9899 90.2659 36.1974C90.8278 35.4035 91.1087 34.3571 91.1087 33.0567Z" fill="white"/>
<path fill-rule="evenodd" clip-rule="evenodd" d="M109.311 34.4751C109.311 35.9268 108.818 37.1079 107.828 38.0198C106.741 39.0162 105.227 39.5138 103.282 39.5138C101.485 39.5138 100.046 39.1599 98.9556 38.4507L99.5752 36.1718C100.749 36.8976 102.037 37.2618 103.441 37.2618C104.448 37.2618 105.232 37.0284 105.795 36.5642C106.356 36.0999 106.636 35.4767 106.636 34.6995C106.636 34.007 106.405 33.4235 105.942 32.9502C105.482 32.477 104.713 32.0371 103.639 31.6306C100.717 30.5161 99.2566 28.8836 99.2566 26.7367C99.2566 25.3337 99.7684 24.1834 100.793 23.2882C101.814 22.3918 103.176 21.9442 104.88 21.9442C106.399 21.9442 107.66 22.2148 108.668 22.7547L107.999 24.9836C107.058 24.4604 105.995 24.1988 104.804 24.1988C103.864 24.1988 103.129 24.436 102.602 24.908C102.157 25.3299 101.933 25.8442 101.933 26.4533C101.933 27.1279 102.188 27.6858 102.7 28.1244C103.145 28.5296 103.954 28.9682 105.128 29.4414C106.564 30.0327 107.619 30.7239 108.298 31.5164C108.974 32.3064 109.311 33.2952 109.311 34.4751Z" fill="white"/>
<path fill-rule="evenodd" clip-rule="evenodd" d="M118.153 29.0066H115.205V34.9815C115.205 36.5012 115.724 37.2605 116.765 37.2605C117.243 37.2605 117.64 37.2181 117.953 37.1335L118.027 39.2098C117.5 39.4111 116.807 39.5124 115.948 39.5124C114.891 39.5124 114.066 39.1829 113.47 38.525C112.877 37.8658 112.579 36.7603 112.579 35.2072V29.004H110.823V26.9521H112.579V24.6988L115.205 23.8883V26.9521H118.153V29.0066Z" fill="white"/>
<path fill-rule="evenodd" clip-rule="evenodd" d="M131.452 33.0065C131.452 34.8981 130.923 36.4512 129.866 37.6657C128.759 38.9161 127.289 39.5393 125.456 39.5393C123.69 39.5393 122.284 38.9404 121.236 37.7426C120.187 36.5448 119.663 35.0328 119.663 33.2104C119.663 31.3034 120.202 29.7414 121.285 28.5269C122.364 27.3111 123.822 26.7032 125.655 26.7032C127.421 26.7032 128.842 27.3022 129.914 28.5012C130.94 29.6644 131.452 31.1662 131.452 33.0065ZM128.677 33.0949C128.677 31.9599 128.44 30.9866 127.96 30.1748C127.399 29.1924 126.598 28.7025 125.559 28.7025C124.484 28.7025 123.668 29.1937 123.107 30.1748C122.627 30.9878 122.39 31.9766 122.39 33.1462C122.39 34.2812 122.627 35.2546 123.107 36.0651C123.685 37.0474 124.493 37.5373 125.535 37.5373C126.556 37.5373 127.358 37.0372 127.936 36.0394C128.429 35.2123 128.677 34.2286 128.677 33.0949Z" fill="white"/>
<path fill-rule="evenodd" clip-rule="evenodd" d="M140.144 29.3593C139.88 29.3093 139.597 29.2836 139.301 29.2836C138.361 29.2836 137.633 29.6465 137.121 30.3737C136.676 31.0149 136.453 31.8254 136.453 32.8039V39.2611H133.78L133.805 30.8302C133.805 29.4119 133.771 28.1204 133.705 26.956H136.034L136.132 29.3105H136.206C136.488 28.5013 136.933 27.8498 137.543 27.3612C138.139 26.9213 138.782 26.702 139.476 26.702C139.723 26.702 139.946 26.72 140.144 26.752V29.3593Z" fill="white"/>
<path fill-rule="evenodd" clip-rule="evenodd" d="M152.104 32.5255C152.104 33.0154 152.073 33.4284 152.006 33.7657H143.984C144.015 34.9814 144.403 35.9112 145.148 36.5524C145.824 37.1257 146.698 37.413 147.772 37.413C148.959 37.413 150.043 37.2193 151.018 36.8307L151.437 38.7288C150.298 39.2366 148.953 39.4893 147.402 39.4893C145.535 39.4893 144.07 38.9276 143.004 37.8054C141.94 36.6833 141.407 35.1764 141.407 33.286C141.407 31.4303 141.903 29.885 142.895 28.6525C143.934 27.3367 145.337 26.6788 147.103 26.6788C148.838 26.6788 150.151 27.3367 151.043 28.6525C151.749 29.6977 152.104 30.9904 152.104 32.5255ZM149.554 31.8163C149.572 31.0058 149.397 30.3055 149.035 29.7143C148.572 28.9538 147.861 28.5742 146.904 28.5742C146.029 28.5742 145.318 28.9448 144.775 29.6887C144.33 30.2799 144.065 30.9891 143.984 31.815H149.554V31.8163Z" fill="white"/>
<path fill-rule="evenodd" clip-rule="evenodd" d="M53.3504 8.18583C53.6351 8.01142 53.9562 7.86522 54.3175 7.74467C54.6774 7.62412 55.1014 7.56384 55.5893 7.56384C56.3758 7.56384 56.9954 7.75493 57.4494 8.13582C57.9035 8.51671 58.1305 9.03097 58.1305 9.67861C58.1305 10.1929 57.9788 10.6238 57.6752 10.9726C57.3717 11.3214 56.9828 11.5536 56.5125 11.669V11.7062C56.7721 11.7485 57.018 11.8203 57.2488 11.9242C57.4808 12.0281 57.684 12.1666 57.8571 12.341C58.0314 12.5154 58.1694 12.718 58.271 12.9514C58.3714 13.1836 58.4228 13.44 58.4228 13.7235C58.4228 14.1877 58.3312 14.5776 58.1481 14.8931C57.965 15.2085 57.7266 15.465 57.4306 15.6651C57.1359 15.8639 56.8047 16.0075 56.4397 16.0934C56.0747 16.1794 55.7097 16.2243 55.3447 16.2243C54.9546 16.2243 54.5696 16.1819 54.1883 16.0999C53.807 16.0178 53.4545 15.8806 53.1296 15.6895L53.4583 14.6571C53.669 14.7648 53.9412 14.8687 54.2736 14.9687C54.6059 15.0688 54.9421 15.1175 55.2833 15.1175C55.8427 15.1175 56.2754 14.9893 56.579 14.7328C56.8825 14.475 57.0355 14.1313 57.0355 13.7004C57.0355 13.4093 56.9741 13.172 56.8524 12.9848C56.7295 12.7975 56.5714 12.6513 56.377 12.5423C56.1826 12.4346 55.9656 12.3602 55.726 12.3192C55.4865 12.2781 55.2494 12.2563 55.0149 12.2563H54.4667V11.2342H55.0149C55.2657 11.2342 55.499 11.2022 55.7148 11.1342C55.9292 11.0688 56.1161 10.9752 56.2742 10.8546C56.4322 10.7341 56.5564 10.5904 56.6454 10.425C56.7332 10.2596 56.7784 10.0723 56.7784 9.86457C56.7784 9.49137 56.6479 9.19897 56.3883 8.98737C56.1287 8.77576 55.78 8.66932 55.3422 8.66932C55.0424 8.66932 54.7414 8.71933 54.4416 8.81808C54.1419 8.91811 53.8734 9.02584 53.6376 9.14126L53.3504 8.18583Z" fill="white"/>
<path fill-rule="evenodd" clip-rule="evenodd" d="M63.8 16.0858L63.7034 15.3895H63.667C63.2707 15.9448 62.6949 16.2231 61.9398 16.2231C61.6714 16.2231 61.4293 16.1769 61.2098 16.0858C60.9903 15.9948 60.7997 15.8704 60.6379 15.7126C60.4748 15.5549 60.3506 15.3689 60.2603 15.1522C60.1713 14.9368 60.1274 14.6995 60.1274 14.443C60.1274 13.6889 60.4272 13.1221 61.028 12.745C61.6288 12.368 62.4792 12.1795 63.583 12.1795V12.0679C63.583 11.2715 63.1741 10.8739 62.3563 10.8739C61.773 10.8739 61.2588 11.024 60.8147 11.3215L60.5476 10.4392C61.0907 10.0917 61.7668 9.91724 62.5758 9.91724C64.1223 9.91724 64.8962 10.7508 64.8962 12.418V14.6444C64.8962 15.2664 64.9251 15.7473 64.9815 16.0871H63.8V16.0858ZM63.6182 13.0759C62.8844 13.0759 62.3375 13.1708 61.9788 13.3619C61.6201 13.553 61.4407 13.8646 61.4407 14.2955C61.4407 14.611 61.5247 14.847 61.6941 15.0047C61.8634 15.1625 62.0779 15.2407 62.3363 15.2407C62.5056 15.2407 62.6661 15.2099 62.8204 15.1471C62.9734 15.0855 63.1077 14.9996 63.2243 14.8919C63.3422 14.7842 63.4363 14.6533 63.5103 14.4995C63.583 14.3456 63.6182 14.1827 63.6182 14.0083V13.0759Z" fill="white"/>
<path fill-rule="evenodd" clip-rule="evenodd" d="M71.2355 10.0404V11.1472H68.7771V16.0859H67.4638V10.0404H71.2355Z" fill="white"/>
<path fill-rule="evenodd" clip-rule="evenodd" d="M78.7538 12.9886C78.7538 13.4695 78.6886 13.9094 78.5594 14.307C78.429 14.7058 78.2496 15.0456 78.0176 15.3265C77.7868 15.6086 77.5108 15.8292 77.191 15.9857C76.8699 16.1434 76.5162 16.2229 76.1261 16.2229C75.3472 16.2229 74.7878 15.937 74.4466 15.365H74.4215V18.5493H73.107V12.0306C73.107 11.7074 73.1032 11.3817 73.0944 11.0534C73.0869 10.7263 73.0744 10.3878 73.0593 10.0389H74.2145L74.2885 10.9969H74.3136C74.7514 10.2762 75.4162 9.91455 76.3092 9.91455C76.6567 9.91455 76.9803 9.98893 77.2763 10.1377C77.5723 10.2877 77.8294 10.4968 78.0489 10.7661C78.2684 11.0354 78.4403 11.3586 78.5657 11.7369C78.6911 12.1152 78.7538 12.532 78.7538 12.9886ZM77.4167 13.0387C77.4167 12.7399 77.3816 12.4642 77.3126 12.2116C77.2437 11.9589 77.1421 11.7435 77.0091 11.5652C76.8761 11.3869 76.7131 11.2459 76.5224 11.142C76.3318 11.0381 76.1185 10.9868 75.8827 10.9868C75.6971 10.9868 75.514 11.0291 75.3346 11.1112C75.1552 11.1933 74.9997 11.3061 74.8668 11.4472C74.7325 11.5883 74.6259 11.7589 74.5444 11.9576C74.4629 12.1564 74.4215 12.368 74.4215 12.5924V13.6005C74.4215 13.8236 74.4553 14.0314 74.5256 14.2224C74.5946 14.4135 74.6912 14.579 74.8166 14.72C74.942 14.8611 75.0925 14.9714 75.2669 15.0496C75.4412 15.1291 75.6331 15.1676 75.8439 15.1676C76.3393 15.1676 76.7244 14.9752 77.0003 14.5892C77.2763 14.2032 77.4167 13.6851 77.4167 13.0387Z" fill="white"/>
<path fill-rule="evenodd" clip-rule="evenodd" d="M85.8129 10.0404L84.3152 14.2327C83.959 15.2279 83.6116 16.0423 83.2754 16.6771C82.938 17.3119 82.6169 17.7736 82.3084 18.0647C81.8543 18.479 81.3714 18.7329 80.8596 18.8226L80.5436 17.6915C80.8835 17.6005 81.2083 17.4222 81.5169 17.1567C81.8242 16.8913 82.0713 16.5604 82.2594 16.1616C82.3247 16.0295 82.356 15.9384 82.356 15.8884C82.356 15.8384 82.3309 15.7435 82.2833 15.6024L80.1409 10.0417H81.5884L82.7085 13.4133C82.7662 13.571 82.8226 13.7493 82.8791 13.948C82.9368 14.1468 82.997 14.3674 83.0622 14.6072H83.0873C83.1274 14.4738 83.1726 14.3071 83.2202 14.1032C83.2692 13.9006 83.3344 13.6659 83.4147 13.4004L84.4131 10.0417H85.8129V10.0404Z" fill="white"/>
<path fill-rule="evenodd" clip-rule="evenodd" d="M88.0882 12.5527H88.6953C89.1406 12.5527 89.4867 12.4707 89.7288 12.3039C89.9709 12.1372 90.0938 11.9346 90.0938 11.6935C90.0938 11.4447 89.991 11.2459 89.7828 11.0972C89.5771 10.9484 89.2898 10.8727 88.9248 10.8727C88.689 10.8727 88.452 10.9125 88.2149 10.9907C87.9753 11.0702 87.7546 11.1677 87.5514 11.2831L87.2114 10.4136C87.5514 10.2238 87.89 10.093 88.2287 10.0225C88.5648 9.95192 88.9022 9.91602 89.2434 9.91602C89.5131 9.91602 89.7828 9.94295 90.0537 9.99681C90.3234 10.0507 90.5654 10.1417 90.7762 10.27C90.9869 10.3982 91.1612 10.5662 91.2929 10.774C91.4271 10.9817 91.4936 11.2382 91.4936 11.546C91.4936 11.7371 91.4573 11.9051 91.3832 12.05C91.3118 12.1949 91.2139 12.3232 91.0923 12.4348C90.9718 12.5463 90.8351 12.6387 90.6859 12.7079C90.5366 12.7785 90.3823 12.831 90.2305 12.8644V12.9016C90.4237 12.9272 90.6131 12.9772 90.7962 13.0516C90.9781 13.126 91.1412 13.2235 91.2892 13.344C91.4334 13.4646 91.5513 13.6095 91.6416 13.7788C91.7294 13.9493 91.7733 14.1417 91.7733 14.3572C91.7733 14.7137 91.6906 15.0125 91.5187 15.2523C91.3494 15.4934 91.1311 15.6832 90.8665 15.8243C90.6043 15.9654 90.3133 16.0667 89.9972 16.1295C89.6812 16.1911 89.3726 16.2231 89.0741 16.2231C88.7091 16.2231 88.3466 16.1834 87.9916 16.1051C87.6341 16.0256 87.313 15.9038 87.0283 15.7384L87.3707 14.8547C87.5815 14.9714 87.821 15.0689 88.0932 15.1471C88.3654 15.2254 88.6426 15.2651 88.9261 15.2651C89.3714 15.2651 89.715 15.1766 89.9546 14.9984C90.1917 14.8201 90.3121 14.5983 90.3121 14.3328C90.3121 14.1584 90.2732 14.0122 90.1917 13.8916C90.1101 13.7711 89.996 13.6736 89.8517 13.5992C89.705 13.5248 89.5357 13.4723 89.34 13.444C89.1468 13.4145 88.9336 13.4004 88.7078 13.4004H88.0882V12.5527Z" fill="white"/>
<path fill-rule="evenodd" clip-rule="evenodd" d="M95.1074 10.0403V12.1794C95.1074 12.6693 95.0999 13.1092 95.0823 13.4978C95.0648 13.8876 95.046 14.298 95.0209 14.7289L95.046 14.7533C95.2002 14.4378 95.352 14.13 95.5013 13.8261C95.653 13.5234 95.8048 13.2144 95.9591 12.8989L97.4191 10.0377H99.1212V16.0832H97.8794V13.9441C97.8794 13.4965 97.892 13.0489 97.9108 12.6013C97.9308 12.1525 97.9522 11.7011 97.9773 11.2445H97.9158C97.7791 11.6177 97.6411 11.9409 97.5019 12.2153C97.3652 12.4885 97.2272 12.7706 97.0905 13.0617C96.8383 13.5593 96.5887 14.0569 96.3404 14.5545C96.0933 15.0521 95.8311 15.5625 95.5565 16.0845H93.8544V10.0403H95.1074Z" fill="white"/>
<path fill-rule="evenodd" clip-rule="evenodd" d="M106.057 10.0404V11.1472H104.257V16.0859H102.966V11.1472H101.177V10.0404H106.057Z" fill="white"/>
<path fill-rule="evenodd" clip-rule="evenodd" d="M112.76 12.7771C112.76 12.8925 112.755 13.0028 112.748 13.1067C112.74 13.2106 112.728 13.3042 112.711 13.3863H108.769C108.787 13.9583 108.962 14.4007 109.298 14.7111C109.635 15.0214 110.08 15.1779 110.63 15.1779C111.206 15.1779 111.738 15.083 112.225 14.8919L112.43 15.8255C111.87 16.0743 111.21 16.1987 110.446 16.1987C109.986 16.1987 109.572 16.1256 109.207 15.9807C108.842 15.8358 108.533 15.6306 108.281 15.3651C108.032 15.0996 107.837 14.7803 107.703 14.4071C107.571 14.0339 107.505 13.6158 107.505 13.1516C107.505 12.6873 107.571 12.2577 107.703 11.864C107.837 11.4703 108.027 11.1279 108.269 10.838C108.513 10.5469 108.808 10.3199 109.15 10.1532C109.495 9.98778 109.88 9.90442 110.302 9.90442C110.674 9.90442 111.012 9.97239 111.319 10.1096C111.623 10.2456 111.882 10.4405 112.095 10.6944C112.311 10.9471 112.476 11.251 112.588 11.6024C112.704 11.9538 112.76 12.3462 112.76 12.7771ZM111.506 12.4296C111.506 11.9564 111.396 11.5729 111.172 11.2792C110.949 10.9856 110.627 10.8368 110.205 10.8368C109.823 10.8368 109.5 10.9856 109.233 11.2844C108.966 11.5832 108.812 11.9641 108.77 12.4296H111.506Z" fill="white"/>
<path fill-rule="evenodd" clip-rule="evenodd" d="M118.055 10.0903C118.29 10.0493 118.589 10.016 118.954 9.99032C119.319 9.96467 119.692 9.95312 120.074 9.95312C120.316 9.95312 120.591 9.96851 120.894 9.99673C121.198 10.0249 121.49 10.0916 121.764 10.1955C122.041 10.2994 122.27 10.4546 122.457 10.6623C122.644 10.8701 122.739 11.1509 122.739 11.5075C122.739 11.6909 122.706 11.855 122.642 11.9986C122.575 12.1436 122.49 12.2705 122.38 12.3782C122.269 12.486 122.144 12.5757 122.002 12.645C121.86 12.7155 121.713 12.7681 121.558 12.8002L121.57 12.8374C121.999 12.9117 122.349 13.0695 122.617 13.3106C122.884 13.5517 123.018 13.8826 123.018 14.3058C123.018 14.729 122.903 15.065 122.678 15.3138C122.45 15.5626 122.171 15.7498 121.838 15.8742C121.504 15.9986 121.154 16.0781 120.784 16.1115C120.417 16.1435 120.085 16.1615 119.794 16.1615C119.468 16.1615 119.15 16.1538 118.839 16.1358C118.525 16.1192 118.265 16.1025 118.055 16.0858V10.0903ZM119.319 12.5041H119.988C120.191 12.5041 120.384 12.49 120.566 12.4605C120.749 12.4323 120.908 12.3861 121.046 12.3245C121.186 12.2617 121.291 12.1796 121.37 12.0757C121.446 11.9719 121.485 11.8462 121.485 11.6961C121.485 11.423 121.375 11.2216 121.149 11.0934C120.926 10.9651 120.576 10.901 120.098 10.901C119.961 10.901 119.841 10.9048 119.738 10.9138C119.638 10.9215 119.499 10.9343 119.319 10.951V12.5041ZM119.319 15.1778C119.481 15.1945 119.618 15.206 119.726 15.215C119.836 15.224 119.963 15.2278 120.111 15.2278C120.29 15.2278 120.471 15.2163 120.658 15.1907C120.843 15.1663 121.015 15.1188 121.169 15.0483C121.324 14.979 121.446 14.8841 121.539 14.7636C121.632 14.6443 121.681 14.4853 121.681 14.2878C121.681 13.9415 121.529 13.703 121.231 13.5709C120.93 13.4388 120.526 13.3734 120.013 13.3734H119.319V15.1778Z" fill="white"/>
</svg>
