<svg width="165" height="48" viewBox="0 0 165 48" fill="none" xmlns="http://www.w3.org/2000/svg">
<path fill-rule="evenodd" clip-rule="evenodd" d="M158.889 48H6.11111C2.68889 48 0 45.36 0 42V6C0 2.64 2.68889 0 6.11111 0H158.889C162.311 0 165 2.64 165 6V42C165 45.24 162.311 48 158.889 48Z" fill="black"/>
<path fill-rule="evenodd" clip-rule="evenodd" d="M83.2332 26.1599C80.2999 26.1599 77.9777 28.3199 77.9777 31.3199C77.9777 34.1999 80.2999 36.4799 83.2332 36.4799C86.1665 36.4799 88.4888 34.3199 88.4888 31.3199C88.4888 28.1999 86.1665 26.1599 83.2332 26.1599ZM83.2334 34.3198C81.6445 34.3198 80.3 32.9998 80.3 31.1998C80.3 29.3998 81.6445 28.0798 83.2334 28.0798C84.8223 28.0798 86.1667 29.2798 86.1667 31.1998C86.1667 32.9998 84.8223 34.3198 83.2334 34.3198ZM71.8666 26.1599C68.9333 26.1599 66.6111 28.3199 66.6111 31.3199C66.6111 34.1999 68.9333 36.4799 71.8666 36.4799C74.8 36.4799 77.1222 34.3199 77.1222 31.3199C77.1222 28.1999 74.8 26.1599 71.8666 26.1599ZM71.8668 34.3198C70.2779 34.3198 68.9335 32.9998 68.9335 31.1998C68.9335 29.3998 70.2779 28.0798 71.8668 28.0798C73.4557 28.0798 74.8001 29.2798 74.8001 31.1998C74.8001 32.9998 73.4557 34.3198 71.8668 34.3198ZM58.2999 27.7199V29.8799H63.5555C63.4333 31.0799 62.9444 32.0399 62.3333 32.6399C61.5999 33.3599 60.3777 34.1999 58.2999 34.1999C54.9999 34.1999 52.5555 31.6799 52.5555 28.4399C52.5555 25.1999 55.1222 22.6799 58.2999 22.6799C60.0111 22.6799 61.3555 23.3999 62.3333 24.2399L63.9222 22.6799C62.5777 21.4799 60.8666 20.5199 58.4222 20.5199C54.0222 20.5199 50.2333 24.1199 50.2333 28.4399C50.2333 32.7599 54.0222 36.3599 58.4222 36.3599C60.8666 36.3599 62.5777 35.6399 64.0444 34.0799C65.5111 32.6399 65.9999 30.5999 65.9999 29.0399C65.9999 28.5599 65.9999 28.0799 65.8777 27.7199H58.2999ZM113.789 29.3999C113.3 28.1999 112.078 26.1599 109.389 26.1599C106.7 26.1599 104.5 28.1999 104.5 31.3199C104.5 34.1999 106.7 36.4799 109.633 36.4799C111.956 36.4799 113.422 35.0399 113.911 34.1999L112.2 32.9999C111.589 33.8399 110.856 34.4399 109.633 34.4399C108.411 34.4399 107.678 33.9599 107.067 32.8799L114.033 29.9999L113.789 29.3999ZM106.7 31.0798C106.7 29.1598 108.289 28.0798 109.389 28.0798C110.245 28.0798 111.1 28.5598 111.345 29.1598L106.7 31.0798ZM100.955 36H103.278V21H100.955V36ZM97.289 27.2399C96.6779 26.6399 95.7001 26.0399 94.4779 26.0399C91.9112 26.0399 89.4668 28.3199 89.4668 31.1999C89.4668 34.0799 91.789 36.2399 94.4779 36.2399C95.7001 36.2399 96.6779 35.6399 97.1668 35.0399H97.289V35.7599C97.289 37.6799 96.189 38.7599 94.4779 38.7599C93.1335 38.7599 92.1557 37.7999 91.9112 36.9599L89.9557 37.7999C90.5668 39.1199 92.0335 40.7999 94.6001 40.7999C97.289 40.7999 99.489 39.2399 99.489 35.5199V26.3999H97.289V27.2399ZM94.6001 34.3198C93.0112 34.3198 91.6667 32.9998 91.6667 31.1998C91.6667 29.3998 93.0112 28.0798 94.6001 28.0798C96.189 28.0798 97.4112 29.3998 97.4112 31.1998C97.4112 32.9998 96.189 34.3198 94.6001 34.3198ZM124.422 21H118.922V36H121.244V30.36H124.422C126.989 30.36 129.433 28.56 129.433 25.68C129.433 22.8 126.989 21 124.422 21ZM124.545 28.2H121.245V23.04H124.545C126.256 23.04 127.233 24.48 127.233 25.56C127.111 26.88 126.133 28.2 124.545 28.2ZM138.6 26.0399C136.889 26.0399 135.178 26.7599 134.567 28.3199L136.644 29.1599C137.133 28.3199 137.867 28.0799 138.722 28.0799C139.944 28.0799 141.044 28.7999 141.167 29.9999V30.1199C140.8 29.8799 139.822 29.5199 138.844 29.5199C136.644 29.5199 134.444 30.7199 134.444 32.8799C134.444 34.9199 136.278 36.2399 138.233 36.2399C139.822 36.2399 140.556 35.5199 141.167 34.7999H141.289V35.9999H143.489V30.2399C143.244 27.5999 141.167 26.0399 138.6 26.0399ZM138.356 34.3198C137.622 34.3198 136.522 33.9598 136.522 32.9998C136.522 31.7998 137.867 31.4398 138.967 31.4398C139.944 31.4398 140.433 31.6798 141.044 31.9198C140.8 33.3598 139.578 34.3198 138.356 34.3198ZM151.189 26.4L148.622 32.88H148.5L145.811 26.4H143.367L147.4 35.52L145.078 40.56H147.4L153.633 26.4H151.189ZM130.656 36H132.978V21H130.656V36Z" fill="white"/>
<path fill-rule="evenodd" clip-rule="evenodd" d="M12.7112 8.99991C12.3445 9.35991 12.1001 9.95991 12.1001 10.6799V37.1999C12.1001 37.9199 12.3445 38.5199 12.7112 38.8799L12.8334 38.9999L27.989 24.1199V23.9999V23.8799L12.7112 8.99991Z" fill="url(#paint0_linear)"/>
<path fill-rule="evenodd" clip-rule="evenodd" d="M33 29.1598L27.9889 24.2398V23.9998V23.8798L33 18.9598L33.1222 19.0798L39.1111 22.4398C40.8222 23.3998 40.8222 24.9598 39.1111 25.9198L33 29.1598Z" fill="url(#paint1_linear)"/>
<path fill-rule="evenodd" clip-rule="evenodd" d="M33.1224 29.0398L27.9891 23.9998L12.7113 38.9998C13.3224 39.5998 14.178 39.5998 15.278 39.1198L33.1224 29.0398Z" fill="url(#paint2_linear)"/>
<path fill-rule="evenodd" clip-rule="evenodd" d="M33.1224 18.96L15.2779 9.00003C14.1779 8.40003 13.3224 8.52003 12.7112 9.12003L27.989 24L33.1224 18.96Z" fill="url(#paint3_linear)"/>
<path opacity="0.2" fill-rule="evenodd" clip-rule="evenodd" d="M33.0001 28.9199L15.2779 38.7599C14.3001 39.3599 13.4446 39.2399 12.8335 38.7599L12.7112 38.8799L12.8335 38.9999C13.4446 39.4799 14.3001 39.5999 15.2779 38.9999L33.0001 28.9199Z" fill="black"/>
<path opacity="0.12" fill-rule="evenodd" clip-rule="evenodd" d="M12.792 38.76C12.3647 38.4 12.2223 37.8 12.2223 37.08V37.2C12.2223 37.92 12.5072 38.52 12.9345 38.88V38.76H12.792Z" fill="black"/>
<path opacity="0.12" fill-rule="evenodd" clip-rule="evenodd" d="M39.111 25.5598L32.9999 28.9198L33.1221 29.0398L39.111 25.6798C39.9665 25.1998 40.3332 24.5998 40.3332 23.9998C40.3332 24.5998 39.8443 25.0798 39.111 25.5598Z" fill="black"/>
<path opacity="0.25" fill-rule="evenodd" clip-rule="evenodd" d="M15.2772 9.11989L39.1105 22.4399C39.8438 22.9199 40.3327 23.3999 40.3327 23.9999C40.3327 23.3999 39.9661 22.7999 39.1105 22.3199L15.2772 8.99989C13.5661 8.03989 12.2216 8.87989 12.2216 10.7999V10.9199C12.2216 8.99989 13.5661 8.15989 15.2772 9.11989Z" fill="white"/>
<path fill-rule="evenodd" clip-rule="evenodd" d="M51.4557 17.1599H50.6001V14.7599H51.3334C51.9445 14.2799 52.3112 13.3199 52.3112 11.9999V8.3999H57.2001V14.7599H58.0557V17.1599H57.2001V15.5999H51.5779V17.1599H51.4557ZM53.1668 12.0001C53.1668 13.0801 52.9224 14.0401 52.4335 14.7601H56.1001V9.36006H53.0446V12.0001H53.1668Z" fill="white"/>
<path d="M50.6001 17.1599H50.5001V17.2599H50.6001V17.1599ZM50.6001 14.7599V14.6599H50.5001V14.7599H50.6001ZM51.3334 14.7599V14.8599H51.368L51.3952 14.8385L51.3334 14.7599ZM52.3112 8.3999V8.2999H52.2112V8.3999H52.3112ZM57.2001 8.3999H57.3001V8.2999H57.2001V8.3999ZM57.2001 14.7599H57.1001V14.8599H57.2001V14.7599ZM58.0557 14.7599H58.1557V14.6599H58.0557V14.7599ZM58.0557 17.1599V17.2599H58.1557V17.1599H58.0557ZM57.2001 17.1599H57.1001V17.2599H57.2001V17.1599ZM57.2001 15.5999H57.3001V15.4999H57.2001V15.5999ZM51.5779 15.5999V15.4999H51.4779V15.5999H51.5779ZM51.5779 17.1599V17.2599H51.6779V17.1599H51.5779ZM53.1668 12.0001H53.2668V11.9001H53.1668V12.0001ZM52.4335 14.7601L52.3507 14.7039L52.2447 14.8601H52.4335V14.7601ZM56.1001 14.7601V14.8601H56.2001V14.7601H56.1001ZM56.1001 9.36006H56.2001V9.26006H56.1001V9.36006ZM53.0446 9.36006V9.26006H52.9446V9.36006H53.0446ZM53.0446 12.0001H52.9446V12.1001H53.0446V12.0001ZM51.4557 17.0599H50.6001V17.2599H51.4557V17.0599ZM50.7001 17.1599V14.7599H50.5001V17.1599H50.7001ZM50.6001 14.8599H51.3334V14.6599H50.6001V14.8599ZM51.3952 14.8385C52.0414 14.331 52.4112 13.3333 52.4112 11.9999H52.2112C52.2112 13.3066 51.8477 14.2288 51.2717 14.6813L51.3952 14.8385ZM52.4112 11.9999V8.3999H52.2112V11.9999H52.4112ZM52.3112 8.4999H57.2001V8.2999H52.3112V8.4999ZM57.1001 8.3999V14.7599H57.3001V8.3999H57.1001ZM57.2001 14.8599H58.0557V14.6599H57.2001V14.8599ZM57.9557 14.7599V17.1599H58.1557V14.7599H57.9557ZM58.0557 17.0599H57.2001V17.2599H58.0557V17.0599ZM57.3001 17.1599V15.5999H57.1001V17.1599H57.3001ZM57.2001 15.4999H51.5779V15.6999H57.2001V15.4999ZM51.4779 15.5999V17.1599H51.6779V15.5999H51.4779ZM51.5779 17.0599H51.4557V17.2599H51.5779V17.0599ZM53.0668 12.0001C53.0668 13.0662 52.8254 14.0049 52.3507 14.7039L52.5162 14.8162C53.0194 14.0752 53.2668 13.094 53.2668 12.0001H53.0668ZM52.4335 14.8601H56.1001V14.6601H52.4335V14.8601ZM56.2001 14.7601V9.36006H56.0001V14.7601H56.2001ZM56.1001 9.26006H53.0446V9.46006H56.1001V9.26006ZM52.9446 9.36006V12.0001H53.1446V9.36006H52.9446ZM53.0446 12.1001H53.1668V11.9001H53.0446V12.1001Z" fill="white"/>
<path fill-rule="evenodd" clip-rule="evenodd" d="M65.2667 14.6399C64.5334 15.3599 63.6778 15.7199 62.5778 15.7199C61.4778 15.7199 60.6223 15.3599 59.8889 14.6399C59.1556 13.9199 58.7889 13.0799 58.7889 11.9999C58.7889 10.9199 59.1556 10.0799 59.8889 9.35994C60.6223 8.63994 61.4778 8.27994 62.5778 8.27994C63.6778 8.27994 64.5334 8.63994 65.2667 9.35994C66.0001 10.0799 66.3667 10.9199 66.3667 11.9999C66.3667 13.0799 66.0001 13.9199 65.2667 14.6399ZM60.6222 14.0402C61.111 14.5202 61.8444 14.8802 62.5777 14.8802C63.311 14.8802 64.0444 14.6402 64.5333 14.0402C65.0222 13.5602 65.3888 12.8402 65.3888 12.0002C65.3888 11.1602 65.1444 10.4402 64.5333 9.9602C64.0444 9.4802 63.311 9.1202 62.5777 9.1202C61.8444 9.1202 61.111 9.3602 60.6222 9.9602C60.1333 10.4402 59.7666 11.1602 59.7666 12.0002C59.7666 12.8402 60.011 13.5602 60.6222 14.0402Z" fill="white"/>
<path d="M64.5333 14.0402L64.4628 13.9684L64.4557 13.977L64.5333 14.0402ZM64.5333 9.9602L64.4628 10.032L64.4715 10.0388L64.5333 9.9602ZM60.6222 9.9602L60.6926 10.032L60.6997 10.0234L60.6222 9.9602ZM65.1967 14.5686C64.4823 15.27 63.6519 15.6199 62.5778 15.6199V15.8199C63.7037 15.8199 64.5845 15.4499 65.3368 14.7113L65.1967 14.5686ZM62.5778 15.6199C61.5037 15.6199 60.6734 15.27 59.959 14.5686L59.8189 14.7113C60.5711 15.4499 61.4519 15.8199 62.5778 15.8199V15.6199ZM59.959 14.5686C59.2447 13.8672 58.8889 13.0529 58.8889 11.9999H58.6889C58.6889 13.107 59.0666 13.9727 59.8189 14.7113L59.959 14.5686ZM58.8889 11.9999C58.8889 10.947 59.2447 10.1327 59.959 9.43129L59.8189 9.28858C59.0666 10.0272 58.6889 10.8929 58.6889 11.9999H58.8889ZM59.959 9.43129C60.6734 8.72988 61.5037 8.37994 62.5778 8.37994V8.17994C61.4519 8.17994 60.5711 8.55 59.8189 9.28858L59.959 9.43129ZM62.5778 8.37994C63.6519 8.37994 64.4823 8.72988 65.1967 9.43129L65.3368 9.28858C64.5845 8.55 63.7037 8.17994 62.5778 8.17994V8.37994ZM65.1967 9.43129C65.911 10.1327 66.2667 10.947 66.2667 11.9999H66.4667C66.4667 10.8929 66.0891 10.0272 65.3368 9.28858L65.1967 9.43129ZM66.2667 11.9999C66.2667 13.0529 65.911 13.8672 65.1967 14.5686L65.3368 14.7113C66.0891 13.9727 66.4667 13.107 66.4667 11.9999H66.2667ZM60.5521 14.1116C61.0563 14.6066 61.8138 14.9802 62.5777 14.9802V14.7802C61.875 14.7802 61.1658 14.4338 60.6922 13.9688L60.5521 14.1116ZM62.5777 14.9802C63.3314 14.9802 64.0975 14.7333 64.6108 14.1034L64.4557 13.977C63.9912 14.5471 63.2907 14.7802 62.5777 14.7802V14.9802ZM64.6033 14.1116C65.1093 13.6148 65.4888 12.8698 65.4888 12.0002H65.2888C65.2888 12.8106 64.935 13.5056 64.4632 13.9688L64.6033 14.1116ZM65.4888 12.0002C65.4888 11.1412 65.2382 10.3867 64.595 9.88156L64.4715 10.0388C65.0506 10.4937 65.2888 11.1792 65.2888 12.0002H65.4888ZM64.6033 9.88884C64.0991 9.3938 63.3416 9.0202 62.5777 9.0202V9.2202C63.2805 9.2202 63.9896 9.5666 64.4632 10.0316L64.6033 9.88884ZM62.5777 9.0202C61.824 9.0202 61.0579 9.26714 60.5446 9.89703L60.6997 10.0234C61.1642 9.45326 61.8648 9.2202 62.5777 9.2202V9.0202ZM60.5521 9.88884C60.0461 10.3856 59.6666 11.1306 59.6666 12.0002H59.8666C59.8666 11.1898 60.2204 10.4948 60.6922 10.0316L60.5521 9.88884ZM59.6666 12.0002C59.6666 12.8592 59.9173 13.6137 60.5604 14.1188L60.6839 13.9616C60.1048 13.5067 59.8666 12.8212 59.8666 12.0002H59.6666Z" fill="white"/>
<path fill-rule="evenodd" clip-rule="evenodd" d="M71.1332 15.7199C70.0332 15.7199 69.1777 15.3599 68.4444 14.6399C67.711 13.9199 67.3444 13.0799 67.3444 11.9999C67.3444 10.9199 67.711 10.0799 68.4444 9.35994C69.1777 8.63994 70.0332 8.27994 71.1332 8.27994C72.2332 8.27994 73.0888 8.63994 73.8221 9.47994L73.211 10.0799C72.7221 9.47994 71.9888 9.11994 71.1332 9.11994C70.2777 9.11994 69.6666 9.35994 69.0555 9.95994C68.4444 10.4399 68.1999 11.1599 68.1999 11.9999C68.1999 12.8399 68.4444 13.5599 69.0555 14.0399C69.5444 14.5199 70.2777 14.8799 71.1332 14.8799C71.9888 14.8799 72.7221 14.5199 73.3332 13.7999L73.9444 14.3999C73.5777 14.7599 73.211 15.1199 72.7221 15.3599C72.2332 15.5999 71.7444 15.7199 71.1332 15.7199Z" fill="white" stroke="white" stroke-width="0.2"/>
<path fill-rule="evenodd" clip-rule="evenodd" d="M77.8556 15.5999H76.8778V9.2399H74.8V8.3999H79.8112V9.2399H77.7334V15.5999H77.8556Z" fill="white" stroke="white" stroke-width="0.2"/>
<path fill-rule="evenodd" clip-rule="evenodd" d="M86.2889 8.3999L83.4778 14.5199C83.1111 15.3599 82.5 15.8399 81.7667 15.8399C81.5222 15.8399 81.2778 15.8399 81.0334 15.7199L81.2778 14.8799C81.4 14.9999 81.6445 14.9999 81.7667 14.9999C82.0111 14.9999 82.1334 14.9999 82.2556 14.8799C82.3778 14.7599 82.5 14.6399 82.6222 14.3999L82.8667 13.7999L80.4222 8.5199H81.5222L83.3556 12.5999L85.0667 8.5199H86.2889V8.3999Z" fill="white" stroke="white" stroke-width="0.2"/>
<path fill-rule="evenodd" clip-rule="evenodd" d="M87.3889 15.5999V8.3999H92.6445V15.5999H91.6667V9.2399H88.2445V15.5999H87.3889Z" fill="white" stroke="white" stroke-width="0.2"/>
<path fill-rule="evenodd" clip-rule="evenodd" d="M94.3555 15.5999V8.3999H95.3332V11.5199H98.9999V8.3999H99.9777V15.5999H98.9999V12.3599H95.3332V15.5999H94.3555Z" fill="white" stroke="white" stroke-width="0.2"/>
<path fill-rule="evenodd" clip-rule="evenodd" d="M107.678 14.6399C106.944 15.3599 106.089 15.7199 104.989 15.7199C103.889 15.7199 103.033 15.3599 102.3 14.6399C101.567 13.9199 101.2 13.0799 101.2 11.9999C101.2 10.9199 101.567 10.0799 102.3 9.35994C103.033 8.63994 103.889 8.27994 104.989 8.27994C106.089 8.27994 106.944 8.63994 107.678 9.35994C108.411 10.0799 108.778 10.9199 108.778 11.9999C108.656 13.0799 108.289 13.9199 107.678 14.6399ZM102.911 14.0402C103.4 14.5202 104.133 14.8802 104.867 14.8802C105.6 14.8802 106.333 14.6402 106.822 14.0402C107.311 13.5602 107.678 12.8402 107.678 12.0002C107.678 11.1602 107.433 10.4402 106.822 9.9602C106.333 9.4802 105.6 9.1202 104.867 9.1202C104.133 9.1202 103.4 9.3602 102.911 9.9602C102.422 10.4402 102.055 11.1602 102.055 12.0002C102.055 12.8402 102.422 13.5602 102.911 14.0402Z" fill="white"/>
<path d="M108.778 11.9999L108.878 12.0113V11.9999H108.778ZM106.822 14.0402L106.752 13.9684L106.745 13.977L106.822 14.0402ZM106.822 9.9602L106.752 10.032L106.76 10.0388L106.822 9.9602ZM102.911 9.9602L102.981 10.032L102.988 10.0234L102.911 9.9602ZM107.608 14.5686C106.893 15.27 106.063 15.6199 104.989 15.6199V15.8199C106.115 15.8199 106.996 15.4499 107.748 14.7113L107.608 14.5686ZM104.989 15.6199C103.915 15.6199 103.084 15.27 102.37 14.5686L102.23 14.7113C102.982 15.4499 103.863 15.8199 104.989 15.8199V15.6199ZM102.37 14.5686C101.656 13.8672 101.3 13.0529 101.3 11.9999H101.1C101.1 13.107 101.478 13.9727 102.23 14.7113L102.37 14.5686ZM101.3 11.9999C101.3 10.947 101.656 10.1327 102.37 9.43129L102.23 9.28858C101.478 10.0272 101.1 10.8929 101.1 11.9999H101.3ZM102.37 9.43129C103.084 8.72988 103.915 8.37994 104.989 8.37994V8.17994C103.863 8.17994 102.982 8.55 102.23 9.28858L102.37 9.43129ZM104.989 8.37994C106.063 8.37994 106.893 8.72988 107.608 9.43129L107.748 9.28858C106.996 8.55 106.115 8.17994 104.989 8.17994V8.37994ZM107.608 9.43129C108.322 10.1327 108.678 10.947 108.678 11.9999H108.878C108.878 10.8929 108.5 10.0272 107.748 9.28858L107.608 9.43129ZM108.678 11.9887C108.558 13.0503 108.199 13.8713 107.601 14.5752L107.754 14.7046C108.379 13.9685 108.753 13.1096 108.877 12.0112L108.678 11.9887ZM102.841 14.1116C103.345 14.6066 104.103 14.9802 104.867 14.9802V14.7802C104.164 14.7802 103.455 14.4338 102.981 13.9688L102.841 14.1116ZM104.867 14.9802C105.62 14.9802 106.386 14.7333 106.9 14.1034L106.745 13.977C106.28 14.5471 105.579 14.7802 104.867 14.7802V14.9802ZM106.892 14.1116C107.398 13.6148 107.778 12.8698 107.778 12.0002H107.578C107.578 12.8106 107.224 13.5056 106.752 13.9688L106.892 14.1116ZM107.778 12.0002C107.778 11.1412 107.527 10.3867 106.884 9.88156L106.76 10.0388C107.339 10.4937 107.578 11.1792 107.578 12.0002H107.778ZM106.892 9.88884C106.388 9.3938 105.63 9.0202 104.867 9.0202V9.2202C105.569 9.2202 106.278 9.5666 106.752 10.0316L106.892 9.88884ZM104.867 9.0202C104.113 9.0202 103.347 9.26714 102.833 9.89703L102.988 10.0234C103.453 9.45326 104.154 9.2202 104.867 9.2202V9.0202ZM102.841 9.88884C102.335 10.3856 101.955 11.1306 101.955 12.0002H102.155C102.155 11.1898 102.509 10.4948 102.981 10.0316L102.841 9.88884ZM101.955 12.0002C101.955 12.8698 102.335 13.6148 102.841 14.1116L102.981 13.9688C102.509 13.5056 102.155 12.8106 102.155 12.0002H101.955Z" fill="white"/>
<path fill-rule="evenodd" clip-rule="evenodd" d="M112.567 15.5999V8.3999H115.255C115.867 8.3999 116.355 8.6399 116.722 8.9999C117.089 9.3599 117.333 9.8399 117.333 10.4399C117.333 10.7999 117.211 11.0399 117.089 11.3999C116.967 11.6399 116.722 11.8799 116.355 11.9999C116.722 12.1199 116.967 12.3599 117.211 12.5999C117.455 12.8399 117.578 13.1999 117.578 13.6799C117.578 14.2799 117.333 14.7599 116.967 15.1199C116.478 15.4799 115.989 15.7199 115.378 15.7199H112.567V15.5999ZM113.544 11.5201H115.255C115.622 11.5201 115.867 11.4001 116.111 11.1601C116.355 10.9201 116.478 10.6801 116.478 10.4401C116.478 10.2001 116.355 9.96006 116.111 9.72006C115.867 9.48006 115.622 9.36006 115.255 9.36006H113.544V11.5201ZM113.544 14.76H115.5C115.867 14.76 116.111 14.64 116.355 14.4C116.6 14.16 116.722 13.92 116.722 13.56C116.722 13.32 116.6 12.96 116.355 12.72C116.111 12.48 115.867 12.36 115.5 12.36H113.667V14.76H113.544Z" fill="white"/>
<path d="M112.567 8.3999V8.2999H112.467V8.3999H112.567ZM117.089 11.3999L117.178 11.4453L117.181 11.4389L117.183 11.4321L117.089 11.3999ZM116.967 15.1199L117.026 15.2012L117.037 15.1913L116.967 15.1199ZM112.567 15.7199H112.467V15.8199H112.567V15.7199ZM113.544 9.36006V9.26006H113.444V9.36006H113.544ZM113.667 12.36V12.26H113.567V12.36H113.667ZM113.667 14.76V14.86H113.767V14.76H113.667ZM112.667 15.5999V8.3999H112.467V15.5999H112.667ZM112.567 8.4999H115.255V8.2999H112.567V8.4999ZM115.255 8.4999C115.838 8.4999 116.302 8.7278 116.652 9.07126L116.792 8.92855C116.409 8.552 115.895 8.2999 115.255 8.2999V8.4999ZM116.652 9.07126C117.002 9.41473 117.233 9.86983 117.233 10.4399H117.433C117.433 9.80998 117.176 9.30507 116.792 8.92855L116.652 9.07126ZM117.233 10.4399C117.233 10.7783 117.121 10.9943 116.994 11.3678L117.183 11.4321C117.301 11.0855 117.433 10.8215 117.433 10.4399H117.233ZM117 11.3545C116.889 11.5712 116.666 11.7932 116.324 11.9049L116.387 12.0949C116.779 11.9666 117.044 11.7086 117.178 11.4453L117 11.3545ZM116.324 12.0949C116.666 12.2067 116.895 12.4296 117.141 12.6713L117.281 12.5285C117.038 12.2902 116.778 12.0331 116.387 11.9049L116.324 12.0949ZM117.141 12.6713C117.36 12.886 117.478 13.2158 117.478 13.6799H117.678C117.678 13.184 117.551 12.7938 117.281 12.5285L117.141 12.6713ZM117.478 13.6799C117.478 14.25 117.246 14.7051 116.896 15.0485L117.037 15.1913C117.42 14.8147 117.678 14.3098 117.678 13.6799H117.478ZM116.907 15.0394C116.427 15.3928 115.959 15.6199 115.378 15.6199V15.8199C116.019 15.8199 116.528 15.567 117.026 15.2004L116.907 15.0394ZM115.378 15.6199H112.567V15.8199H115.378V15.6199ZM112.667 15.7199V15.5999H112.467V15.7199H112.667ZM113.544 11.6201H115.255V11.4201H113.544V11.6201ZM115.255 11.6201C115.652 11.6201 115.92 11.4874 116.181 11.2314L116.041 11.0887C115.813 11.3128 115.593 11.4201 115.255 11.4201V11.6201ZM116.181 11.2314C116.436 10.9807 116.578 10.7166 116.578 10.4401H116.378C116.378 10.6435 116.274 10.8594 116.041 11.0887L116.181 11.2314ZM116.578 10.4401C116.578 10.1635 116.436 9.89939 116.181 9.6487L116.041 9.79142C116.274 10.0207 116.378 10.2366 116.378 10.4401H116.578ZM116.181 9.6487C115.92 9.39277 115.652 9.26006 115.255 9.26006V9.46006C115.593 9.46006 115.813 9.56735 116.041 9.79142L116.181 9.6487ZM115.255 9.26006H113.544V9.46006H115.255V9.26006ZM113.444 9.36006V11.5201H113.644V9.36006H113.444ZM113.544 14.86H115.5V14.66H113.544V14.86ZM115.5 14.86C115.896 14.86 116.165 14.7273 116.425 14.4714L116.285 14.3287C116.057 14.5527 115.837 14.66 115.5 14.66V14.86ZM116.425 14.4714C116.554 14.3455 116.654 14.2157 116.722 14.0663C116.789 13.9163 116.822 13.7519 116.822 13.56H116.622C116.622 13.7281 116.594 13.8637 116.539 13.9838C116.485 14.1044 116.402 14.2145 116.285 14.3287L116.425 14.4714ZM116.822 13.56C116.822 13.2947 116.69 12.9085 116.425 12.6487L116.285 12.7914C116.51 13.0115 116.622 13.3453 116.622 13.56H116.822ZM116.425 12.6487C116.165 12.3927 115.896 12.26 115.5 12.26V12.46C115.837 12.46 116.057 12.5673 116.285 12.7914L116.425 12.6487ZM115.5 12.26H113.667V12.46H115.5V12.26ZM113.567 12.36V14.76H113.767V12.36H113.567ZM113.667 14.66H113.544V14.86H113.667V14.66Z" fill="white"/>
<defs>
<linearGradient id="paint0_linear" x1="21.3111" y1="-8.91276" x2="-2.90997" y2="-2.2421" gradientUnits="userSpaceOnUse">
<stop stop-color="#00A0FF"/>
<stop offset="0.00657445" stop-color="#00A1FF"/>
<stop offset="0.2601" stop-color="#00BEFF"/>
<stop offset="0.5122" stop-color="#00D2FF"/>
<stop offset="0.7604" stop-color="#00DFFF"/>
<stop offset="1" stop-color="#00E3FF"/>
</linearGradient>
<linearGradient id="paint1_linear" x1="41.3532" y1="11.8435" x2="11.7792" y2="11.8435" gradientUnits="userSpaceOnUse">
<stop stop-color="#FFE000"/>
<stop offset="0.4087" stop-color="#FFBD00"/>
<stop offset="0.7754" stop-color="#FFA500"/>
<stop offset="1" stop-color="#FF9C00"/>
</linearGradient>
<linearGradient id="paint2_linear" x1="12.3236" y1="16.2166" x2="-6.66576" y2="48.6883" gradientUnits="userSpaceOnUse">
<stop stop-color="#FF3A44"/>
<stop offset="1" stop-color="#C31162"/>
</linearGradient>
<linearGradient id="paint3_linear" x1="0.834544" y1="4.89554" x2="9.2461" y2="19.4135" gradientUnits="userSpaceOnUse">
<stop stop-color="#32A071"/>
<stop offset="0.0685" stop-color="#2DA771"/>
<stop offset="0.4762" stop-color="#15CF74"/>
<stop offset="0.8009" stop-color="#06E775"/>
<stop offset="1" stop-color="#00F076"/>
</linearGradient>
</defs>
</svg>
