<svg width="244" height="90" viewBox="0 0 244 90" fill="none" xmlns="http://www.w3.org/2000/svg">
<path opacity="0.6" fill-rule="evenodd" clip-rule="evenodd" d="M243.754 83.6977C243.754 83.7779 243.75 83.8615 243.747 83.9418C243.747 83.9883 243.747 84.0117 243.747 84.0117C243.697 84.0184 243.646 84.0284 243.593 84.0387C243.56 84.0452 243.523 84.0485 243.49 84.0552C238.388 84.9277 230.527 85.9439 222.195 85.7634C215.673 85.6263 208.869 84.7538 202.873 82.5142C185.319 92.0978 169.806 81.6518 169.806 81.6518C169.806 81.6518 161.686 87.5652 151.716 80.7561C149.399 87.4113 129.253 90.0522 121.3 82.5978C119.481 85.028 100.821 93.9297 85.9728 84.1588C74.4717 92.2617 66.9719 84.3662 66.9719 84.3662C66.9719 84.3662 55.4317 95.8084 33.8797 85.7333C25.8491 86.9869 19.5313 87.3481 14.6051 87.2241C7.08015 87.0438 2.8105 85.7369 0.656142 84.7738C0.647759 84.7708 0.645022 84.7708 0.645022 84.7708C0.474573 84.1154 0.387924 83.4302 0.395751 82.7215C0.452192 78.4293 3.9841 74.9932 8.28724 75.0467C9.53068 75.0634 10.7043 75.3674 11.741 75.8991C12.1657 70.6007 16.6476 66.4593 22.0573 66.5292C23.379 66.546 24.6392 66.8168 25.7904 67.285C24.8124 64.5371 24.2954 61.5752 24.3374 58.4936C24.5134 44.4873 36.0453 33.2758 50.0891 33.453C61.9395 33.6002 71.7893 41.8097 74.4773 52.7805C76.3159 52.0719 78.3138 51.6909 80.4039 51.7177C87.4035 51.8077 93.2853 56.3841 95.3419 62.6718C96.7586 59.222 100.176 56.8152 104.138 56.8654C104.652 56.872 105.155 56.9222 105.647 57.0058C105.133 54.8197 104.867 52.5333 104.893 50.1901C105.091 34.683 117.855 22.2716 133.405 22.4655C135.607 22.4956 137.745 22.7829 139.798 23.2845C142.137 9.91363 153.915 -0.174928 167.967 0.00229922C181.874 0.175903 193.3 10.3581 195.468 23.5885C195.56 23.5919 195.65 23.5852 195.742 23.5852C203.054 23.6788 208.903 29.6624 208.813 36.9563C208.802 37.6513 208.743 38.3298 208.629 38.9919C215.176 40.1952 220.096 45.9514 220.01 52.8073C220.004 53.0547 219.996 53.2988 219.979 53.5396C220.401 53.5061 220.826 53.4894 221.259 53.4927C227.881 53.5763 233.246 58.7173 233.716 65.1855H233.808C237.672 65.2324 240.763 68.3946 240.712 72.2487C240.701 73.3553 240.422 74.3913 239.952 75.3139C242.316 77.3364 243.797 80.3482 243.754 83.6977Z" fill="#3ECC78"/>
</svg>
