<svg width="415" height="144" viewBox="0 0 415 144" fill="none" xmlns="http://www.w3.org/2000/svg">
<path opacity="0.8" fill-rule="evenodd" clip-rule="evenodd" d="M414.628 132.987C403.087 135.158 391.093 135.616 380.529 135.309C362.329 134.786 348.379 132.023 348.379 132.023C348.379 132.023 338.663 141.93 325.772 132.222C303.77 149.051 280.185 132.233 280.185 132.233C280.185 132.233 250.822 141.612 234.96 132.987C207.676 149.455 184.934 131.856 184.934 131.856C184.934 131.856 180.436 137.739 168.2 138.374C155.97 139.021 148.987 131.199 148.987 131.199C148.987 131.199 139.258 142.587 115.903 143.142C92.5535 143.702 81.8791 133.262 81.8791 133.262C81.8791 133.262 65.8624 143.858 44.4478 132.966C38.3656 134.819 32.7451 135.88 27.6528 136.397C14.916 137.669 5.42602 135.519 0.00540591 133.671H0C0 133.671 5.27418e-06 133.661 0.00540591 133.644C0.528188 126.415 6.60492 120.753 13.9708 120.807C14.3041 120.813 14.6324 120.829 14.9608 120.856C14.3381 119.159 13.9935 117.322 14.0097 115.399C14.0767 106.898 21.0371 100.068 29.5593 100.132C33.7123 100.17 37.4707 101.835 40.2223 104.523C38.9996 102.055 38.3213 99.2703 38.3435 96.3247C38.4266 86.2156 46.6993 78.0862 56.8342 78.1697C58.2184 78.1805 59.5636 78.3469 60.8538 78.6465C59.5474 74.7592 58.841 70.5892 58.8745 66.2634C59.0413 45.2856 76.2251 28.4115 97.2568 28.5774C107.447 28.655 116.664 32.7313 123.447 39.2856C128.139 17.1873 147.892 0.690302 171.413 0.873458C198.279 1.08409 219.887 22.9826 219.676 49.7772C219.649 53.4377 219.206 56.9974 218.412 60.4191C219.638 60.1751 220.897 60.0415 222.193 60.0528C232.271 60.1358 240.377 68.3488 240.301 78.4024C240.274 82.162 239.097 85.6446 237.115 88.5337C241.295 89.6983 244.346 93.5408 244.314 98.0798C244.303 99.6905 243.898 101.199 243.196 102.535C244.633 102.082 246.166 101.829 247.76 101.851C248.435 101.856 249.094 101.91 249.736 101.996C248.499 99.9545 247.792 97.5519 247.814 94.9829C247.873 87.5963 253.922 81.6518 261.331 81.7126C262.06 81.7186 262.779 81.7849 263.47 81.9012C262.125 79.5558 261.369 76.844 261.391 73.9496C261.466 65.2211 268.611 58.2008 277.366 58.2671C279.812 58.2897 282.118 58.8607 284.176 59.8643C285.434 44.5977 298.304 32.6478 313.907 32.7696C330.26 32.8972 343.405 46.2229 343.275 62.526C343.259 64.6888 343.005 66.7903 342.546 68.8201C345.095 67.3947 348.039 66.5851 351.166 66.6131C360.762 66.6847 368.48 74.5044 368.404 84.0754C368.394 85.3559 368.237 86.604 367.967 87.7962C368.637 87.6351 369.328 87.5468 370.046 87.5521C374.804 87.5909 378.628 91.4728 378.59 96.2192C378.585 97.3688 378.347 98.4569 377.931 99.4589C378.849 99.2488 379.811 99.1357 380.794 99.1464C387.701 99.1949 393.258 104.824 393.204 111.72C393.183 114.44 392.286 116.961 390.785 118.997C392.918 118.065 395.267 117.559 397.741 117.581C406.576 117.645 413.802 124.395 414.628 132.987Z" fill="#3ECC78"/>
</svg>
