<svg width="416" height="143" viewBox="0 0 416 143" fill="none" xmlns="http://www.w3.org/2000/svg">
<path fill-rule="evenodd" clip-rule="evenodd" d="M415.003 132.663C403.462 134.834 391.467 135.292 380.904 134.985C362.704 134.462 348.754 131.699 348.754 131.699C348.754 131.699 339.038 141.606 326.147 131.898C304.145 148.727 280.56 131.909 280.56 131.909C280.56 131.909 251.197 141.288 235.335 132.663C208.051 149.131 185.309 131.532 185.309 131.532C185.309 131.532 180.811 137.415 168.575 138.05C156.345 138.697 149.362 130.875 149.362 130.875C149.362 130.875 139.633 142.263 116.278 142.818C92.9284 143.378 82.254 132.938 82.254 132.938C82.254 132.938 66.2373 143.534 44.8227 132.642C38.7405 134.495 33.12 135.556 28.0277 136.073C15.2908 137.345 5.8009 135.195 0.380284 133.347H0.374878C0.374878 133.347 0.374883 133.337 0.380284 133.32C0.903066 126.091 6.9798 120.429 14.3457 120.483C14.679 120.489 15.0073 120.505 15.3357 120.532C14.713 118.835 14.3684 116.998 14.3846 115.075C14.4516 106.574 21.4119 99.7436 29.9341 99.8082C34.0872 99.8459 37.8456 101.511 40.5972 104.199C39.3745 101.731 38.6962 98.9463 38.7183 96.0007C38.8015 85.8916 47.0742 77.7622 57.2091 77.8457C58.5933 77.8565 59.9385 78.0229 61.2287 78.3224C59.9223 74.4352 59.2159 70.2651 59.2493 65.9394C59.4162 44.9616 76.6 28.0875 97.6317 28.2534C107.822 28.331 117.039 32.4073 123.822 38.9616C128.514 16.8633 148.266 0.366267 171.788 0.549423C198.654 0.760052 220.262 22.6585 220.051 49.4532C220.024 53.1136 219.581 56.6733 218.787 60.0951C220.013 59.8511 221.272 59.7175 222.568 59.7288C232.645 59.8117 240.752 68.0247 240.676 78.0784C240.649 81.838 239.472 85.3206 237.49 88.2096C241.67 89.3743 244.721 93.2168 244.689 97.7558C244.678 99.3665 244.273 100.875 243.571 102.211C245.008 101.758 246.541 101.505 248.135 101.527C248.81 101.532 249.468 101.586 250.111 101.672C248.874 99.6305 248.167 97.2279 248.189 94.6589C248.248 87.2723 254.297 81.3278 261.706 81.3886C262.435 81.3946 263.154 81.4609 263.845 81.5772C262.5 79.2318 261.744 76.52 261.766 73.6256C261.841 64.8971 268.986 57.8768 277.741 57.943C280.187 57.9657 282.493 58.5367 284.551 59.5402C285.809 44.2736 298.679 32.3238 314.282 32.4455C330.635 32.5732 343.78 45.8989 343.65 62.202C343.634 64.3648 343.38 66.4662 342.921 68.496C345.47 67.0707 348.414 66.261 351.541 66.2891C361.137 66.3607 368.855 74.1804 368.779 83.7514C368.768 85.0319 368.612 86.28 368.342 87.4722C369.012 87.3111 369.703 87.2227 370.421 87.2281C375.179 87.2669 379.003 91.1487 378.965 95.8952C378.96 97.0448 378.722 98.1329 378.306 99.1348C379.224 98.9248 380.186 98.8117 381.168 98.8224C388.076 98.8709 393.633 104.5 393.579 111.396C393.558 114.116 392.661 116.637 391.16 118.673C393.293 117.741 395.642 117.235 398.116 117.257C406.951 117.321 414.177 124.071 415.003 132.663Z" fill="#3ECC78"/>
</svg>
