<svg width="805" height="263" viewBox="0 0 805 263" fill="none" xmlns="http://www.w3.org/2000/svg">
<g opacity="0.56">
<path opacity="0.6" fill-rule="evenodd" clip-rule="evenodd" d="M687.754 83.6977C687.754 83.7779 687.75 83.8615 687.747 83.9418C687.747 83.9883 687.747 84.0117 687.747 84.0117C687.697 84.0184 687.646 84.0284 687.593 84.0387C687.56 84.0452 687.523 84.0485 687.49 84.0552C682.388 84.9277 674.527 85.9439 666.195 85.7634C659.673 85.6263 652.869 84.7538 646.873 82.5142C629.319 92.0978 613.806 81.6518 613.806 81.6518C613.806 81.6518 605.686 87.5652 595.716 80.7561C593.399 87.4113 573.253 90.0522 565.3 82.5978C563.481 85.028 544.821 93.9297 529.973 84.1588C518.472 92.2617 510.972 84.3662 510.972 84.3662C510.972 84.3662 499.432 95.8084 477.88 85.7333C469.849 86.9869 463.531 87.3481 458.605 87.2241C451.08 87.0438 446.811 85.7369 444.656 84.7738C444.648 84.7708 444.645 84.7708 444.645 84.7708C444.475 84.1154 444.388 83.4302 444.396 82.7215C444.452 78.4293 447.984 74.9932 452.287 75.0467C453.531 75.0634 454.704 75.3674 455.741 75.8991C456.166 70.6007 460.648 66.4593 466.057 66.5292C467.379 66.546 468.639 66.8168 469.79 67.285C468.812 64.5371 468.295 61.5752 468.337 58.4936C468.513 44.4873 480.045 33.2758 494.089 33.453C505.94 33.6002 515.789 41.8097 518.477 52.7805C520.316 52.0719 522.314 51.6909 524.404 51.7177C531.403 51.8077 537.285 56.3841 539.342 62.6718C540.759 59.222 544.176 56.8152 548.138 56.8654C548.652 56.872 549.155 56.9222 549.647 57.0058C549.133 54.8197 548.867 52.5333 548.893 50.1901C549.091 34.683 561.855 22.2716 577.405 22.4655C579.607 22.4956 581.745 22.7829 583.798 23.2845C586.137 9.91363 597.915 -0.174928 611.967 0.00229922C625.874 0.175903 637.3 10.3581 639.468 23.5885C639.56 23.5919 639.65 23.5852 639.742 23.5852C647.054 23.6788 652.903 29.6624 652.813 36.9563C652.802 37.6513 652.743 38.3298 652.629 38.9919C659.176 40.1952 664.096 45.9514 664.01 52.8073C664.004 53.0547 663.996 53.2988 663.979 53.5396C664.401 53.5061 664.826 53.4894 665.259 53.4927C671.881 53.5763 677.246 58.7173 677.716 65.1855H677.808C681.672 65.2324 684.763 68.3946 684.712 72.2487C684.701 73.3553 684.422 74.3913 683.952 75.3139C686.316 77.3364 687.797 80.3482 687.754 83.6977Z" fill="#3ECC78"/>
<path opacity="0.4" fill-rule="evenodd" clip-rule="evenodd" d="M402.072 60.4845C398.659 60.8179 393.849 60.7654 388.329 59.2299C385.861 60.1699 383.456 60.7467 381.173 61.0538C370.932 62.4546 363.133 58.522 363.133 58.522C363.133 58.522 342.368 67.2224 326.737 58.522C325.087 59.0126 323.518 59.3984 322.035 59.6943C314.384 61.2261 309.009 60.4134 305.805 59.522C305.79 59.5145 305.786 59.5145 305.786 59.5145C306.225 55.3872 309.697 52.1774 313.905 52.1774C314.154 52.1774 314.392 52.1924 314.633 52.2149C314.173 51.1999 313.905 50.0763 313.905 48.8853C313.905 44.4733 317.455 40.8928 321.838 40.8928C323.574 40.8928 325.172 41.4621 326.48 42.4171C326.191 41.0164 326.038 39.5632 326.038 38.0726C326.038 26.3909 335.439 16.919 347.033 16.919C355.576 16.919 362.921 22.0613 366.2 29.4359C367.836 28.361 369.783 27.7317 371.88 27.7317C377.616 27.7317 382.262 32.4134 382.262 38.1924C382.262 39.5033 382.021 40.758 381.582 41.9153C382.957 41.2598 384.493 40.8928 386.11 40.8928C391.972 40.8928 396.726 45.683 396.726 51.5894C396.726 52.477 396.615 53.3422 396.414 54.1699C399.481 54.7167 401.845 57.301 402.072 60.4845Z" fill="#3ECC78"/>
<path opacity="0.8" fill-rule="evenodd" clip-rule="evenodd" d="M414.628 184.987C403.087 187.158 391.093 187.616 380.529 187.309C362.329 186.786 348.379 184.023 348.379 184.023C348.379 184.023 338.663 193.93 325.772 184.222C303.77 201.051 280.185 184.233 280.185 184.233C280.185 184.233 250.822 193.612 234.96 184.987C207.676 201.455 184.934 183.856 184.934 183.856C184.934 183.856 180.436 189.739 168.2 190.374C155.97 191.021 148.987 183.199 148.987 183.199C148.987 183.199 139.258 194.587 115.903 195.142C92.5535 195.702 81.8791 185.262 81.8791 185.262C81.8791 185.262 65.8624 195.858 44.4478 184.966C38.3656 186.819 32.7451 187.88 27.6528 188.397C14.916 189.669 5.42602 187.519 0.00540591 185.671H0C0 185.671 5.27418e-06 185.661 0.00540591 185.644C0.528188 178.415 6.60492 172.753 13.9708 172.807C14.3041 172.813 14.6324 172.829 14.9608 172.856C14.3381 171.159 13.9935 169.322 14.0097 167.399C14.0767 158.898 21.0371 152.068 29.5593 152.132C33.7123 152.17 37.4707 153.835 40.2223 156.523C38.9996 154.055 38.3213 151.27 38.3435 148.325C38.4266 138.216 46.6993 130.086 56.8342 130.17C58.2184 130.18 59.5636 130.347 60.8538 130.646C59.5474 126.759 58.841 122.589 58.8745 118.263C59.0413 97.2856 76.2251 80.4115 97.2568 80.5774C107.447 80.655 116.664 84.7313 123.447 91.2856C128.139 69.1873 147.892 52.6903 171.413 52.8735C198.279 53.0841 219.887 74.9826 219.676 101.777C219.649 105.438 219.206 108.997 218.412 112.419C219.638 112.175 220.897 112.041 222.193 112.053C232.271 112.136 240.377 120.349 240.301 130.402C240.274 134.162 239.097 137.645 237.115 140.534C241.295 141.698 244.346 145.541 244.314 150.08C244.303 151.691 243.898 153.199 243.196 154.535C244.633 154.082 246.166 153.829 247.76 153.851C248.435 153.856 249.094 153.91 249.736 153.996C248.499 151.955 247.792 149.552 247.814 146.983C247.873 139.596 253.922 133.652 261.331 133.713C262.06 133.719 262.779 133.785 263.47 133.901C262.125 131.556 261.369 128.844 261.391 125.95C261.466 117.221 268.611 110.201 277.366 110.267C279.812 110.29 282.118 110.861 284.176 111.864C285.434 96.5977 298.304 84.6478 313.907 84.7696C330.26 84.8972 343.405 98.2229 343.275 114.526C343.259 116.689 343.005 118.79 342.546 120.82C345.095 119.395 348.039 118.585 351.166 118.613C360.762 118.685 368.48 126.504 368.404 136.075C368.394 137.356 368.237 138.604 367.967 139.796C368.637 139.635 369.328 139.547 370.046 139.552C374.804 139.591 378.628 143.473 378.59 148.219C378.585 149.369 378.347 150.457 377.931 151.459C378.849 151.249 379.811 151.136 380.794 151.146C387.701 151.195 393.258 156.824 393.204 163.72C393.183 166.44 392.286 168.961 390.785 170.997C392.918 170.065 395.267 169.559 397.741 169.581C406.576 169.645 413.802 176.395 414.628 184.987Z" fill="#3ECC78"/>
<path fill-rule="evenodd" clip-rule="evenodd" d="M804.003 252.663C792.462 254.834 780.467 255.292 769.904 254.985C751.704 254.462 737.754 251.699 737.754 251.699C737.754 251.699 728.038 261.606 715.147 251.898C693.145 268.727 669.56 251.909 669.56 251.909C669.56 251.909 640.197 261.288 624.335 252.663C597.051 269.131 574.309 251.532 574.309 251.532C574.309 251.532 569.811 257.415 557.575 258.05C545.345 258.697 538.362 250.875 538.362 250.875C538.362 250.875 528.633 262.263 505.278 262.818C481.928 263.378 471.254 252.938 471.254 252.938C471.254 252.938 455.237 263.534 433.823 252.642C427.74 254.495 422.12 255.556 417.028 256.073C404.291 257.345 394.801 255.195 389.38 253.347H389.375C389.375 253.347 389.375 253.337 389.38 253.32C389.903 246.091 395.98 240.429 403.346 240.483C403.679 240.489 404.007 240.505 404.336 240.532C403.713 238.835 403.368 236.998 403.385 235.075C403.452 226.574 410.412 219.744 418.934 219.808C423.087 219.846 426.846 221.511 429.597 224.199C428.375 221.731 427.696 218.946 427.718 216.001C427.802 205.892 436.074 197.762 446.209 197.846C447.593 197.856 448.938 198.023 450.229 198.322C448.922 194.435 448.216 190.265 448.249 185.939C448.416 164.962 465.6 148.087 486.632 148.253C496.822 148.331 506.039 152.407 512.822 158.962C517.514 136.863 537.266 120.366 560.788 120.549C587.654 120.76 609.262 142.659 609.051 169.453C609.024 173.114 608.581 176.673 607.787 180.095C609.013 179.851 610.272 179.717 611.568 179.729C621.645 179.812 629.752 188.025 629.676 198.078C629.649 201.838 628.472 205.321 626.49 208.21C630.67 209.374 633.721 213.217 633.689 217.756C633.678 219.367 633.273 220.875 632.571 222.211C634.008 221.758 635.541 221.505 637.135 221.527C637.81 221.532 638.468 221.586 639.111 221.672C637.874 219.63 637.167 217.228 637.189 214.659C637.248 207.272 643.297 201.328 650.706 201.389C651.435 201.395 652.154 201.461 652.845 201.577C651.5 199.232 650.744 196.52 650.766 193.626C650.841 184.897 657.986 177.877 666.741 177.943C669.187 177.966 671.493 178.537 673.551 179.54C674.809 164.274 687.679 152.324 703.282 152.446C719.635 152.573 732.78 165.899 732.65 182.202C732.634 184.365 732.38 186.466 731.921 188.496C734.47 187.071 737.414 186.261 740.541 186.289C750.137 186.361 757.855 194.18 757.779 203.751C757.768 205.032 757.612 206.28 757.342 207.472C758.012 207.311 758.703 207.223 759.421 207.228C764.179 207.267 768.003 211.149 767.965 215.895C767.96 217.045 767.722 218.133 767.306 219.135C768.224 218.925 769.186 218.812 770.168 218.822C777.076 218.871 782.633 224.5 782.579 231.396C782.558 234.116 781.661 236.637 780.16 238.673C782.293 237.741 784.642 237.235 787.116 237.257C795.951 237.321 803.177 244.071 804.003 252.663Z" fill="#3ECC78"/>
</g>
</svg>
