<svg width="27" height="34" viewBox="0 0 27 34" fill="none" xmlns="http://www.w3.org/2000/svg">
<path fill-rule="evenodd" clip-rule="evenodd" d="M22.6732 18.2308C22.6368 14.0975 25.9833 12.0866 26.1363 11.993C24.2411 9.16771 21.3035 8.78169 20.2712 8.75091C17.804 8.48544 15.4108 10.2604 14.154 10.2604C12.8721 10.2604 10.9367 8.77656 8.85081 8.82016C6.1666 8.86248 3.6555 10.4514 2.27827 12.9189C-0.563969 17.95 1.5558 25.3433 4.27888 29.41C5.64105 31.4016 7.23276 33.6254 9.31615 33.5472C11.3544 33.4612 12.1157 32.2185 14.5754 32.2185C17.0125 32.2185 17.7275 33.5472 19.8523 33.4971C22.0398 33.4612 23.417 31.4965 24.7315 29.4869C26.3056 27.2041 26.9378 24.956 26.9629 24.8406C26.9115 24.8226 22.7146 23.1849 22.6732 18.2308Z" fill="white"/>
<path fill-rule="evenodd" clip-rule="evenodd" d="M18.6595 6.07562C19.7558 4.6739 20.5058 2.76689 20.2976 0.831665C18.7109 0.903482 16.7266 1.95381 15.584 3.32476C14.573 4.53283 13.6699 6.51294 13.9032 8.37506C15.6856 8.511 17.5156 7.45554 18.6595 6.07562Z" fill="white"/>
</svg>
