<svg width="36" height="36" viewBox="0 0 36 36" fill="none" xmlns="http://www.w3.org/2000/svg">
<path d="M35.5 18C35.5 27.665 27.665 35.5 18 35.5C8.33502 35.5 0.5 27.665 0.5 18C0.5 8.33502 8.33502 0.5 18 0.5C27.665 0.5 35.5 8.33502 35.5 18Z" stroke="#D9E2E2"/>
<g clip-path="url(#clip0)">
<path d="M25.6644 15.869L21.3337 16.0161L17.4743 12.9976C17.1282 12.7583 16.7306 12.6035 16.3139 12.5458C16.2825 12.5414 16.2511 12.5376 16.2196 12.5344C15.6119 12.4721 15.3331 13.1504 15.633 13.6827C16.1606 14.6191 16.8058 15.7195 17.0475 16.1476L13.1348 16.2728C12.9412 16.2861 12.7482 16.2368 12.5844 16.1323C12.4207 16.0277 12.2949 15.8734 12.2259 15.6923C12.0067 15.2193 11.1678 14.4142 10.3764 14.4423C9.92686 14.4814 9.61538 14.9084 9.71552 15.3484L10.58 19.1459C10.6609 19.2523 10.7663 19.3379 10.8871 19.3955C11.0079 19.4531 11.1408 19.4809 11.2744 19.4768L16.8367 19.6218L14.6954 23.3529C14.3534 23.9488 14.7192 24.6983 15.3906 24.5524C15.4199 24.546 15.4493 24.5392 15.4785 24.5321C15.9634 24.4134 16.4165 24.1918 16.8069 23.8823C18.0547 22.8187 21.7712 19.7625 21.7712 19.7625L27.3572 19.9191C28.3487 19.9469 29.2406 19.2222 29.0467 18.2494C28.8122 17.0728 28.0287 15.7451 25.6644 15.869Z" fill="#ACBBBE"/>
</g>
<defs>
<clipPath id="clip0">
<rect x="6" y="6" width="24" height="24" fill="white"/>
</clipPath>
</defs>
</svg>
