<svg width="22" height="22" viewBox="0 0 22 22" fill="none" xmlns="http://www.w3.org/2000/svg">
<path opacity="0.5" d="M13.3881 5.0144C15.3011 5.40562 16.7969 6.97345 17.1701 8.97863" stroke="#FCB016" stroke-width="2" stroke-linecap="round" stroke-linejoin="round"/>
<path opacity="0.5" d="M13.388 1C17.3899 1.46599 20.5504 4.77459 21 8.9686" stroke="#FCB016" stroke-width="2" stroke-linecap="round" stroke-linejoin="round"/>
<path fill-rule="evenodd" clip-rule="evenodd" d="M20.0426 18.9846C20.0448 19.5498 19.8196 20.0898 19.4223 20.4718C19.0249 20.8539 18.4923 21.0427 17.9553 20.9918C15.009 20.6563 12.1788 19.601 9.6922 17.9108C7.37874 16.3699 5.41733 14.3141 3.94727 11.8892C2.32909 9.27098 1.32207 6.29008 1.00778 3.18795C0.9594 2.62681 1.13826 2.07019 1.50066 1.65407C1.86306 1.23794 2.37564 1.00063 2.91318 1.0001H5.78564C6.74683 0.990183 7.56609 1.72868 7.70062 2.72629C7.82186 3.68982 8.0467 4.63587 8.37086 5.54641C8.63392 6.27992 8.46567 7.10682 7.93999 7.66401L6.72398 8.93859C8.08702 11.4512 10.0718 13.5315 12.4689 14.9602L13.6849 13.6856C14.2165 13.1346 15.0054 12.9583 15.7052 13.234C16.5739 13.5738 17.4765 13.8094 18.3958 13.9365C19.3586 14.0789 20.0668 14.955 20.0426 15.9738V18.9846Z" stroke="#2AA65C" stroke-width="2" stroke-linecap="round" stroke-linejoin="round"/>
</svg>
